<?xml version="1.0" encoding="utf-8"?>
<svg xmlns="http://www.w3.org/2000/svg">
    <symbol viewBox="0 0 67 67" id="facebook">
        <path d="M29.765 50.32h6.744V33.998h4.499l.596-5.624h-5.095l.007-2.816c0-1.466.14-2.253 2.244-2.253h2.812V17.68h-4.5c-5.405 0-7.307 2.729-7.307 7.317v3.377h-3.369v5.625h3.369V50.32zM34 64C17.432 64 4 50.568 4 34 4 17.431 17.432 4 34 4s30 13.431 30 30c0 16.568-13.432 30-30 30z" fill-rule="evenodd" clip-rule="evenodd" fill="#3a589b"/>
    </symbol>
    <symbol viewBox="0 0 512 512" id="github">
        <path d="M256 32C132.3 32 32 134.8 32 261.7c0 101.5 64.2 187.5 153.2 217.9 11.2 2.1 15.3-5 15.3-11.1 0-5.5-.2-19.9-.3-39.1-62.3 13.9-75.5-30.8-75.5-30.8-10.2-26.5-24.9-33.6-24.9-33.6-20.3-14.3 1.5-14 1.5-14 22.5 1.6 34.3 23.7 34.3 23.7 20 35.1 52.4 25 65.2 19.1 2-14.8 7.8-25 14.2-30.7-49.7-5.8-102-25.5-102-113.5 0-25.1 8.7-45.6 23-61.6-2.3-5.8-10-29.2 2.2-60.8 0 0 18.8-6.2 61.6 23.5 17.9-5.1 37-7.6 56.1-7.7 19 .1 38.2 2.6 56.1 7.7 42.8-29.7 61.5-23.5 61.5-23.5 12.2 31.6 4.5 55 2.2 60.8 14.3 16.1 23 36.6 23 61.6 0 88.2-52.4 107.6-102.3 113.3 8 7.1 15.2 21.1 15.2 42.5 0 30.7-.3 55.5-.3 63 0 6.1 4 13.3 15.4 11C415.9 449.1 480 363.1 480 261.7 480 134.8 379.7 32 256 32z" fill-rule="evenodd" clip-rule="evenodd"/>
    </symbol>
    <symbol viewBox="0 0 56.7 56.7" id="instagram">
        <circle cx="28.1" cy="30" r="4.4"/><path d="M33.6 19.2h-11c-1.6 0-3 .5-3.9 1.4-.9.9-1.4 2.3-1.4 3.9v11c0 1.6.5 3 1.5 4 1 .9 2.3 1.4 3.9 1.4h10.9c1.6 0 3-.5 3.9-1.4 1-.9 1.5-2.3 1.5-3.9v-11c0-1.6-.5-2.9-1.4-3.9-1-1-2.3-1.5-4-1.5zm-5.5 17.6c-3.8 0-6.8-3.1-6.8-6.8 0-3.8 3.1-6.8 6.8-6.8s6.9 3 6.9 6.8-3.1 6.8-6.9 6.8zm7.1-12.3c-.9 0-1.6-.7-1.6-1.6s.7-1.6 1.6-1.6 1.6.7 1.6 1.6-.7 1.6-1.6 1.6z"/><path d="M28.3 5.2c-13.6 0-24.6 11-24.6 24.6 0 13.6 11 24.6 24.6 24.6 13.6 0 24.6-11 24.6-24.6.1-13.6-11-24.6-24.6-24.6zm13.1 30.4c0 2.3-.8 4.3-2.2 5.7-1.4 1.4-3.4 2.1-5.6 2.1H22.7c-2.2 0-4.2-.7-5.6-2.1-1.5-1.4-2.2-3.4-2.2-5.7v-11c0-4.6 3.1-7.8 7.8-7.8h11c2.3 0 4.2.8 5.6 2.2 1.4 1.4 2.1 3.3 2.1 5.6v11z"/>
    </symbol>
    <symbol viewBox="0 0 112.196 112.196" id="linkedin">
        <circle cx="56.098" cy="56.097" r="56.098" fill="#007ab9"/><path d="M89.616 60.611v23.128H76.207V62.161c0-5.418-1.936-9.118-6.791-9.118-3.705 0-5.906 2.491-6.878 4.903-.353.862-.444 2.059-.444 3.268v22.524h-13.41s.18-36.546 0-40.329h13.411v5.715c-.027.045-.065.089-.089.132h.089v-.132c1.782-2.742 4.96-6.662 12.085-6.662 8.822 0 15.436 5.764 15.436 18.149zm-54.96-36.642c-4.587 0-7.588 3.011-7.588 6.967 0 3.872 2.914 6.97 7.412 6.97h.087c4.677 0 7.585-3.098 7.585-6.97-.089-3.956-2.908-6.967-7.496-6.967zm-6.791 59.77H41.27v-40.33H27.865v40.33z" fill="#f1f2f2"/>
    </symbol>
    <symbol viewBox="0 0 500 500" id="vk">
        <g transform="translate(0 -552.362)"><rect height="500" rx="250" ry="250" width="500" y="552.362" fill="#537599"/><path d="M261.277 712.094c-17.03.08-27.89.1-43.2.1-12.806 0-19.998 5.184-20.226 8.276-.21 2.826 6.326 5.112 10.3 7.4 3.836 2.378 7.3 9.926 7.3 15.025v44.476c0 4.227-.96 7.17-4.375 9.926-1.627 1.312-3.56 1.661-5.65 1.65-1.691-.01-3.992-.326-5.575-2.376-16.867-21.833-16.923-24.529-40.551-68.526-1.146-2.134-2.279-4.398-4.625-6.1-2.347-1.703-5.825-2.825-11.4-2.825-18.993 0-30.714.275-43.202.275-11.82 0-10.683 7.248-9.1 10.55 14.171 29.55 28.56 57.764 45.101 86.402 19.37 33.538 37.08 53.682 66.877 68.152 6.916 3.358 19.387 6.825 33.8 6.825h30.626c3.935 0 10.476-3.105 10.476-7.275v-22.976c0-6.57 6.551-8.96 10.125-10.575 4.21-1.903 8.626 1.097 10.85 3.475 17.122 18.303 15.176 16.312 30.776 32.7 3.525 3.704 6.187 5.651 12.85 5.651 44.994 0 45.032.086 55.777 0 2.95-.024 7.332-4.45 8.3-6.175 1.278-2.278 4.184-10.407-.475-15.676-15.812-17.88-31.93-34.251-47.376-50.5-1.178-1.24-2.068-2.917-2.1-4.626-.036-1.869 1.007-3.683 2.1-5.2 17.324-24.047 31.635-44.409 47.201-69.702 5.06-8.222 4.405-14.045 3.475-16.05-1.077-2.323-4.394-5.53-8.2-5.55-20.787-.117-29.778-.408-51.951-.376-6.623.01-12.49-.498-16.126 7.476-9.745 21.367-25.645 53.972-39.45 67.526-2.55 2.502-5.955 4.36-8.926 4.376-2.972.014-6.131-2.01-6.575-6.85-.34-23.256-.057-43.096-.175-65.877-.036-6.964-2.973-8.756-5.2-10.3-3.023-2.097-7.798-2.743-11.476-2.726z" fill="#fff"/></g>
    </symbol>
</svg>